<?xml version="1.0" encoding="utf-8"?>
<!-- Generator: Adobe Illustrator 26.3.1, SVG Export Plug-In . SVG Version: 6.00 Build 0)  -->
<svg version="1.1" id="Layer_1" xmlns="http://www.w3.org/2000/svg" xmlns:xlink="http://www.w3.org/1999/xlink" x="0px" y="0px"
	 viewBox="0 0 723 160" style="enable-background:new 0 0 723 160;" xml:space="preserve">
<g>
	<path d="M215.5,20h52.7c39.8,0,64.3,22.4,64.3,59.9c0,37.5-24.5,59.9-64.3,59.9h-52.7V20z M265.9,114.3c20.9,0,33.3-12.6,33.3-34.6
		c0-21.7-12.4-34.2-33.3-34.2h-18.1v68.8H265.9z"/>
	<path d="M414.1,116.6h-47.2l-8.8,23.2h-32.5L373.4,20h36.1l47.7,119.8h-34.4L414.1,116.6z M376,92.4h28.9l-14.1-37.3h-0.8L376,92.4
		z"/>
	<path d="M499.5,20v119.8h-32.3V20H499.5z"/>
	<path d="M552.7,20v91.3h67v28.5h-99.3V20H552.7z"/>
	<path d="M686.8,20h35.6l-45.8,70.6v49.3h-31.4V90.5l-46-70.6H637l25.1,41.3L686.8,20z"/>
</g>
<g>
	<path d="M51.9,20.1v119.8H19.6V20.1H51.9z"/>
	<path d="M152.3,90v-70H182v119.8h-29.7L98.7,61.7v78.2H69.1V20.1h36.5L152.3,90z"/>
</g>
<path d="M0-0.1V160h201.6V-0.1H0z M5.7,154.4V5.6h190.3v148.8L5.7,154.4L5.7,154.4z"/>
</svg>
